<?xml version="1.0" encoding="utf-8"?>
<svg xmlns="http://www.w3.org/2000/svg" viewBox="0 0 48 48" width="480" height="480">
  <path fill="#455a64" d="M32,17H13v-3.153C13,13.379,13.379,13,13.847,13h17.305C31.621,13,32,13.379,32,13.847V17z" />
  <path fill="#90caf9" d="M32 17H13c0 0-6 7.129-6 16 0 8.871 5.185 9 10 9 2.077 0 8.038 0 11 0 4.815 0 10-.129 10-9C38 24.129 32 17 32 17zM31 9c0 0-8.807-3-20-3 1.249 2.6 3 7 3 7h17V9z" />
  <path fill="#795548" d="M10.295,26C9.548,28.09,9,30.476,9,33c0,6.675,2.891,7,8,7h11c5.109,0,8-0.325,8-7c0-2.524-0.548-4.91-1.296-7H10.295z" />
  <path fill="#fff" d="M17 17c0 0-5 6.063-5 17 2.438-10.875 8-17 8-17H17zM17 13h3c-.909-1.926-2.138-3.482-3.247-4.635-.432-.045-.87-.087-1.316-.126C16.207 9.622 17 11.425 17 13z" />
  <path fill="#455a64" d="M43,28h-3c0-9.279-2.424-13.455-3.905-14.974l-4.035,4.034l-2.121-2.121L36,9C36,9,43,12.438,43,28z" />
</svg>