<?xml version="1.0" encoding="utf-8"?>
<svg xmlns="http://www.w3.org/2000/svg" viewBox="0 0 48 48" width="480" height="480">
  <path fill="#FFC107" d="M5,44l38-15.8c-4.2-10-12.2-18-22.2-22.2L5,44z" />
  <path fill="#FF8F00" d="M39.6,29.6l3.4-1.4c-4.2-10-12.2-18-22.2-22.2l-1.4,3.4C28.5,13.2,35.8,20.5,39.6,29.6z" />
  <path fill="#D32F2F" d="M15 29c2.2 0 4-1.8 4-4 0-2.2-1.8-4-4-4-.1 0-.3 0-.4 0l-2.7 6.4C12.6 28.4 13.7 29 15 29zM8 40c2.2 0 4-1.8 4-4 0-1.6-.9-2.9-2.2-3.5l-3.1 7.3C7.2 39.9 7.6 40 8 40zM22 32c-2.2 0-4 1.8-4 4 0 .9.3 1.6.7 2.3l7.2-3C25.6 33.4 24 32 22 32zM28 19A4 4 0 1 0 28 27 4 4 0 1 0 28 19z" />
  <g>
    <path fill="#E57373" d="M26 21A1 1 0 1 0 26 23 1 1 0 1 0 26 21zM21 33A1 1 0 1 0 21 35 1 1 0 1 0 21 33zM30 23A1 1 0 1 0 30 25 1 1 0 1 0 30 23zM29 20A1 1 0 1 0 29 22 1 1 0 1 0 29 20zM24 35c-.6 0-1 .4-1 1 0 .2 0 .3.1.5l1.8-.8C24.8 35.3 24.4 35 24 35zM9 37c.6 0 1-.4 1-1 0-.6-.4-1-1-1-.1 0-.2 0-.3.1l-.6 1.4C8.3 36.8 8.6 37 9 37zM14 25c.6 0 1-.4 1-1 0-.6-.4-1-1-1-.1 0-.2 0-.3.1l-.6 1.4C13.3 24.8 13.6 25 14 25zM16 26A1 1 0 1 0 16 28 1 1 0 1 0 16 26z" />
  </g>
  <path fill="#37474F" d="M22 -2.9H26V50.800000000000004H22z" transform="rotate(-45.001 24 24)" />
</svg>